<svg xmlns="http://www.w3.org/2000/svg" width="384pt" height="384pt" viewBox="0 0 384 384" version="1.1" class="iconadda">
<g id="animate_0" transform="rotate(0,192,192) translate(119.03999999999999,119.03999999999999) scale(0.38,0.38)">
<g id="animate_1" style="transform-origin: 228.35px 251.969px;"><path style="stroke: none; fill-rule: nonzero; fill-opacity: 1;" d="M 208.632812 199.625 C 203.277344 201.519531 197.679688 202.476562 192 202.476562 C 186.320312 202.476562 180.722656 201.515625 175.367188 199.625 L 72.785156 163.375 L 72.785156 244.316406 C 72.785156 249.871094 76.082031 254.871094 81.15625 257.140625 C 163.023438 293.765625 221.730469 293.765625 303.597656 257.140625 C 308.667969 254.871094 311.96875 249.871094 311.96875 244.316406 L 311.964844 163.109375 Z M 357.476562 286.480469 L 357.476562 147.023438 L 334.980469 154.972656 L 334.980469 286.0625 L 310.109375 324.171875 C 306.714844 329.375 308.179688 336.34375 313.378906 339.738281 C 315.203125 340.933594 317.339844 341.570312 319.519531 341.570312 C 323.191406 341.570312 326.792969 339.773438 328.949219 336.46875 L 334.980469 327.230469 L 334.980469 345.664062 C 334.980469 351.875 340.015625 356.914062 346.230469 356.914062 C 352.441406 356.914062 357.480469 351.878906 357.480469 345.664062 L 357.480469 327.644531 L 363.242188 336.46875 C 365.398438 339.773438 369 341.570312 372.671875 341.570312 C 374.78125 341.570312 376.914062 340.976562 378.8125 339.738281 C 384.015625 336.34375 385.480469 329.371094 382.082031 324.171875 Z M 357.476562 286.480469 " id="animate_2" data-original="#000001" fill="#ffffff"></path>
</g><g id="animate_3" style="transform-origin: 191.998px 103.535px;"><path style="stroke: none; fill-rule: nonzero; fill-opacity: 1;" d="M 201.136719 28.65625 L 374.328125 89.863281 C 387.222656 94.417969 387.222656 112.652344 374.328125 117.210938 L 201.136719 178.417969 L 201.136719 178.414062 C 195.226562 180.503906 188.773438 180.503906 182.863281 178.414062 L 9.667969 117.207031 C -3.226562 112.652344 -3.226562 94.417969 9.667969 89.859375 L 182.859375 28.652344 L 182.863281 28.65625 C 188.773438 26.566406 195.226562 26.566406 201.136719 28.65625 Z M 201.136719 28.65625 " id="animate_4" data-original="#000001" fill="#ffffff"></path>
</g></g>
</svg>